<?xml version="1.0" encoding="utf-8"?>
<!-- Generator: Adobe Illustrator 27.3.1, SVG Export Plug-In . SVG Version: 6.00 Build 0)  -->
<svg version="1.1" id="Layer_1" xmlns="http://www.w3.org/2000/svg" xmlns:xlink="http://www.w3.org/1999/xlink" x="0px" y="0px"
	 viewBox="0 0 198.4 198.4" style="enable-background:new 0 0 198.4 198.4;" xml:space="preserve">
<g>
	<path d="M86.3,65.5H81v64.3h10.7h3.2H105v-43C105,76,100.4,65.5,86.3,65.5z"/>
	<path d="M126.3,66.7h-9v31.4h9.1c15.7,0,18.8-7.1,18.8-16.4C145.3,73.9,141.3,66.7,126.3,66.7z"/>
	<path d="M99.9,13.6c-49.5,0-88.3,38.8-88.3,85.6s38.8,85.6,88.3,85.6c48.2,0,87-38.8,87-85.6S148.1,13.6,99.9,13.6z M151.7,139.7
		c-4.4,0-7.9-3.5-7.9-7.7s3.5-7.7,7.9-7.7c4.3,0,7.8,3.5,7.8,7.7S156,139.7,151.7,139.7z M127.3,105.3h-10v24.5h14.6v7.9H94.8h-3.2
		h-37v-7.9h13.9V65.5h-5.3c-10.6,0-12.8,3.5-18.7,21.4h-5.6V58.8h52.7h19h15.6c24.6,0,33.2,10.9,33.2,22.7
		C159.5,92.4,152.4,105.3,127.3,105.3z"/>
</g>
</svg>
